<svg width="26" height="18" viewBox="0 0 26 18" fill="none" xmlns="http://www.w3.org/2000/svg">
<path d="M13.0075 17.765H12.9825C12.905 17.765 5.15126 17.75 3.19501 17.2188C2.66643 17.0764 2.18453 16.7976 1.79755 16.4104C1.41058 16.0232 1.1321 15.5412 0.990005 15.0125C0.638234 13.028 0.468363 11.0154 0.482505 9C0.473423 6.98127 0.647891 4.96589 1.00375 2.97875C1.14987 2.44922 1.42963 1.96613 1.81619 1.57584C2.20276 1.18556 2.68315 0.901178 3.21126 0.75C5.11376 0.25 12.6538 0.25 12.9738 0.25H13C13.0788 0.25 20.8525 0.265 22.7888 0.79625C23.8625 1.0875 24.7013 1.92625 24.9913 3C25.3538 4.9925 25.525 7.01375 25.5 9.03875C25.5088 11.055 25.3339 13.0679 24.9775 15.0525C24.8336 15.5806 24.554 16.0618 24.1665 16.4484C23.779 16.835 23.2972 17.1135 22.7688 17.2562C20.8688 17.76 13.3275 17.765 13.0075 17.765ZM10.5075 5.25625L10.5013 12.7563L17.0163 9.00625L10.5075 5.25625Z" fill="white"/>
</svg>
